<svg version="1.1" width="500" height="500" xmlns="http://www.w3.org/2000/svg">
          <rect x="50" y="50" width="400" height="400" stroke="black" fill="transparent" />
        <circle cx="175.38097978199954" cy="182.3207311321611" r="5" /><polygon points="305.99999711183 181.9999975363657 169.99999824706015 290.00000139204053 109.99999908977563 74.00000211502903 " fill="transparent" stroke="black"/><polyline points="116.55196676366023 57.31992064691427 116.54001123743252 57.382052625477286 116.51619993368534 57.43131441024582 116.48116228050912 57.46714326661455 116.4356528128373 57.48903379295541 116.38055765135097 57.496551186103865 116.31685554299409 57.48933639854761 116.24563361286374 57.46711081682722 116.16792958514498 57.42967007743276 116.08500422631415 57.37691989800945 115.99798721670544 57.30884352111328 115.90839106473881 57.22661944112641 115.81879201072489 57.13576060238731 115.73156267059616 57.04262093257413 115.64897370882915 56.95327941115603 115.57285689362286 56.873511483200495 115.50354989552987 56.80722769471592 115.43598291592754 56.75178159295059 115.36397065138814 56.70305464377904 115.28159733393744 56.65709527832387 115.18318276923203 56.610087064670054 115.06527761216773 56.55951486067926 114.9325007687076 56.5075832092148 114.79108836738824 56.4575360970641 114.64694065737979 56.412504230967194 114.50571994875499 56.37547364796576 114.37107161244117 56.34890486913924 114.2405230132289 56.333440448382525 114.11004961494328 56.32937165147349 113.97548508496669 56.33707602761264 113.83258510157808 56.35704478468408 113.67810655188687 56.389480261246256 113.51406831042586 56.43307984493513 113.34392502215317 56.486095964826234 113.17155684289298 56.54671472221658 113.0013255346253 56.61300459899097 112.83643188991559 56.683770811131865 112.67459025892589 56.76133646501171 112.51149977732736 56.849076251219046 112.34236545956772 56.950620546416175 112.16172787964186 57.069902159659975 111.96513816285513 57.20959780537441 111.75515355447564 57.36592199500147 111.53689058069271 57.53299150016819 111.31679798542575 57.70433076065712 111.1026361706399 57.87276869323171 110.90109842300927 58.032799529718645 110.71028071264624 58.18809945144457 110.5250298208386 58.34516051089142 110.33923838722376 58.51104549548416 110.14589440668132 58.693441721261244 109.93862966488058 58.898817383625186 109.71762642102945 59.12641323329217 109.4851222834459 59.37336684248174 109.24390477991795 59.63648403052542 108.997361815909 59.91214626113276 108.74856047515416 60.198144216700086 108.49645080419135 60.49966344431319 108.23853465792459 60.824467424876204 107.97180672594533 61.18125422893367 107.6927231473186 61.579834010711714 107.39733663973706 62.02921132493292 107.0824838935404 62.530726771400865 106.7449306677876 63.083459824676595 106.38119021329328 63.686143992175005 105.98740698002715 64.33698565198482 105.56032493130178 65.03457303180184 105.10111510440564 65.78127549484607 104.61288367790284 66.58064859499322 104.09956488688461 67.43642799969267 103.56639886348245 68.35257201497964 103.01773880713208 69.33418294368781 102.44974336659004 70.3909073972365 101.85532335602932 71.53490081852908 101.2260838276325 72.78022668521675 100.55203370741354 74.143141046232 99.82314887506107 75.64117288226407 99.03518672405025 77.2887671446467 98.18581763089415 79.10044773984951 97.27301802456368 81.09208191423554 96.29539836184588 83.28106998979374 95.25135263030906 85.68620686524616 94.13665141318236 88.32789351995126 92.94596008292662 91.22814343535705 91.6735745412605 94.41060819627626 90.31336847709707 97.90055211983983 88.86059322826176 101.72154457156466 87.31776360654493 105.88345493546812 85.69094287393493 110.38836016268581 83.98832040894919 115.2323823625432 82.22019238355554 120.40448466102977 80.39673826707325 125.89355961835922 78.5208425468337 131.71561079490175 76.59418948041444 137.89570579425384 74.61980470116342 144.46056252147636 72.60248807835447 151.43799101658604 70.55132899812378 158.84839724776674 68.48611309135578 166.67785778984518 66.4315792448702 174.89542707631483 64.41510539513723 183.45960302555602 62.466105410645646 192.3182809670131 60.614346214272445 201.4138604988593 58.88647162690887 210.698739072261 57.308820665458576 220.1240111247121 55.907961751597476 229.63570264125937 54.710156841940204 239.17524355575165 53.73360447000209 248.69396104440997 52.96571961370046 258.1951816279935 52.38366919347441 267.69735322124853 51.96199870640651 277.2191674994232 51.673153976279735 286.77772681348756 51.49763761850267 296.372149713233 51.454553490987436 305.93720875419103 51.57364793534564 315.3859628403839 51.885148476739595 324.62597707805634 52.41903522265319 333.5612012690307 53.20754075979093 342.0735135434444 54.290083657279745 349.9720127695492 55.69590457648337 357.08261840895835 57.44037482179671 363.27647227073794 59.52655836773721 368.470262541597 61.93327996713562 372.6575350951546 64.57995470297197 375.9905144940477 67.3784827849116 378.6425627060019 70.24882255819728 380.7678848738141 73.11865565549715 382.50199209686724 75.9390597902043 383.9378384320037 78.73053344023447 385.0607686047723 81.52928839031493 385.8375172328846 84.37031430103563 386.24197144168704 87.28733169016999 386.25394721635905 90.30254113519332 385.87120800766405 93.39748899428133 385.144347169811 96.54567525258564 384.1309873238179 99.72295846298809 382.8822691305779 102.90735436200337 381.44355258093464 106.0793972862634 379.8530186039766 109.22383656442135 378.1371140333037 112.32711762149547 376.3195555470831 115.37688881292428 374.4232367203823 118.36199610940072 372.4699415041383 121.27826695432682 370.4754802885329 124.14572246587727 368.43488329671897 126.98914965639062 366.3368704476337 129.83205183109922 364.16899118543046 132.6964414636546 361.91826919249934 135.59640748025015 359.5771189249907 138.51984760920362 357.16002726940184 141.44930738766675 354.6866301776573 144.36852961892077 352.1759818671705 147.2625251322344 349.6462664471708 150.12039986781468 347.11205947722107 152.94320845139498 344.5768937545796 155.73470729570465 342.04130284026894 158.4985121661982 339.505419693936 161.2379351305729 336.969207703966 163.955855712126 334.4327445939807 166.6541658985552 331.8970283386797 169.33435880223448 329.36306384458675 171.9977991200131 326.83156917042925 174.64570833548777 324.3030636912226 177.28249494701947 321.7744748872731 179.92499012945117 319.22968872234264 182.5916611398833 316.65088083587716 185.2991533301442 314.0220957828388 188.062336140982 311.329174165865 190.88656752239407 308.5675202221255 193.7461549396044 305.7637418475165 196.610226196445 302.9495511861063 199.45071451176236 300.15373711703137 202.2423437368115 297.40219783287677 204.97173332142825 294.7088366046137 207.66321739229306 292.04972643650933 210.34752439224997 289.39449425653777 213.0521197940793 286.7159965898456 215.80136287581874 283.9901670118741 218.60873242826005 281.203791964709 221.45568804764196 278.37565286394175 224.31793800098515 275.53026111271026 227.1735746494906 272.68972437218247 230.00302641390945 269.8737956021845 232.79346068122 267.0954705471554 235.5509404151142 264.34882976372796 238.28495950202466 261.62450853536814 241.00367476334984 258.9144670559595 243.71402754237826 256.2118697817697 246.42111862373147 253.5117177144097 249.1263975060111 250.81267427169448 251.8300794182712 248.11462353969625 254.5319447366324 245.41786720827287 257.23127213111945 242.7231944678965 259.9221023239164 240.03661412009728 262.5801311469051 237.38244912815364 265.1799978946406 234.78607674173247 267.70022082415346 232.26899918499052 270.1225968024647 229.84944245397202 272.4386641779562 227.5358950425492 274.6667138251679 225.31010210060245 276.82870436902357 223.1501384180336 278.943777879099 221.03689031445282 281.028338128952 218.95397831382093 283.09252266631677 216.8912851542963 285.13000117564843 214.85515688421074 287.131533425507 212.8548474315191 289.0891682501161 210.89832037076337 290.9963655189698 208.99212707210793 292.8495060791993 207.1398970387102 294.65363431952755 205.33659592176625 296.41462649678215 203.57635643885865 298.137762226727 201.85390684973612 299.8275842153189 200.16471137279706 301.4853584832171 198.50750979804852 303.10327473850737 196.8901166121282 304.672488346361 195.32138016811754 306.18597930987147 193.80832402207747 307.6377357517666 192.35696340750806 309.02476727828446 190.9702920539052 310.35029727355885 189.64509032958244 311.618622037378 188.37706539780535 312.83380455220396 187.16215731391722 313.99951859154584 185.9966949776618 315.1187425119486 184.87770231746126 316.19381385538225 183.80284360265304 317.22662375252077 182.77022927925833 318.21886570619665 181.77816727160143 319.1724766545245 180.8247219496735 320.0911311107487 179.9088688892513 320.9758537236842 179.0241462763158 321.83266087036196 178.16733912963804 322.6653992478748 177.33460075212517 323.4773503238745 176.52264967612552 324.26919763038075 175.73080236961925 325.0331011004031 174.96689889959688 325.76040306928786 174.2395969307122 326.4439729447255 173.5560270552745 327.0777901047356 172.92220989526436 327.6594357372277 172.34056426277232 328.1966641579098 171.80333584209023 328.6986534231678 171.3013465768323 329.1736346831991 170.82636531680092 329.628879958795 170.37112004120505 330.0699168793934 169.93008312060664 330.4977927120477 169.50220728795227 330.91253305986163 169.08746694013837 331.31421895251054 168.68578104748946 331.70290121082013 168.29709878917987 332.0795697459471 167.92043025405286 332.44817211829024 167.55182788170976 332.81309722390995 167.18690277609005 333.17817821561164 166.82182178438836 333.54673744911116 166.45326255088887 333.91881927573934 166.0811807242606 334.28332356975193 165.7166764302481 334.62793845005115 165.37206154994888 334.94204264899577 165.05795735100423 335.2160909193579 164.78390908064205 335.44520617854204 164.55479382145796 335.6383143815331 164.36168561846688 335.8068986909165 164.19310130908352 335.9614767560317 164.0385232439683 336.1117567523065 163.88824324769348 336.2652452425171 163.7347547574829 336.4219409147973 163.57805908520274 336.5805432095432 163.41945679045682 336.7396911077508 163.2603088922492 336.89802356695805 163.10197643304195 337.0543921163335 162.9456078836665 337.2080488211725 162.7919511788275 337.35836460158225 162.6416353984177 337.50467684643206 162.49532315356794 337.6464330698897 162.35356693011022 337.78295103008696 162.217048969913 337.912799409244 162.08720059075605 338.03458667781337 161.96541332218663 338.146750297759 161.853249702241 338.2481299370918 161.7518700629082 338.33797886066617 161.66202113933377 338.4178421211253 161.58215787887468 338.48962923174383 161.51037076825617 338.55520537311423 161.44479462688577 338.6163713329943 161.38362866700578 338.67450340759194 161.32549659240806 338.7297384126145 161.27026158738553 338.7819469078425 161.2180530921575 338.8309208263351 161.16907917366493 338.87656467137975 161.12343532862027 338.9187656083682 161.0812343916318 338.9577768617821 161.04222313821793 338.9939108753552 161.00608912464477 339.02748796994473 160.9725120300553 339.0587393352351 160.9412606647649 339.08796707430986 160.91203292569008 339.11505655143566 160.88494344856437 339.1399641674667 160.8600358325333 339.16258730700235 160.83741269299765 339.1828664577089 160.81713354229112 339.2007510940836 160.7992489059164 339.2167212534256 160.7832787465744 339.2311451147871 160.76885488521282 339.2444665849018 160.75553341509823 339.2572719440753 160.74272805592472 339.26973578686244 160.73026421313756 339.2816232295875 160.71837677041248 339.2923073081092 160.7076926918908 339.30138598225795 160.698614017742 339.3082482858318 160.69175171416822 339.31268515277935 160.68731484722065 339.31508511833584 160.68491488166416 339.31605664134514 160.68394335865483 339.3162666776565 160.68373332234347 339.3163228207641 160.68367717923587 339.3166687668867 160.68333123311328 339.31724753917734 160.68275246082266 339.3176424725608 160.6823575274392 339.3175704999878 160.68242950001218 339.31669926291977 160.6833007370803 339.3147428550826 160.68525714491741 339.31146990631464 160.68853009368542 339.3067122514398 160.69328774856015 339.30030283483376 160.69969716516624 339.2920203629182 160.7079796370818 339.2818077807999 160.71819221920012 339.27007835672947 160.72992164327056 339.2572919107904 160.74270808920966 339.2440600205847 160.75593997941536 339.2308963847475 160.7691036152525 339.21812794111327 160.78187205888676 339.2056139898924 160.79438601010756 339.193119236105 160.80688076389498 339.18036824256586 160.81963175743417 339.1669009841452 160.83309901585488 339.15259950563023 160.84740049436977 339.1375082810851 160.8624917189149 339.12178233971815 160.87821766028185 339.1055274361638 160.8944725638362 339.0888584527955 160.91114154720452 339.07197890522684 160.92802109477316 339.0549273714512 160.94507262854881 339.03767180288366 160.9623281971163 339.0203309612811 160.9796690387189 339.0029753294332 160.99702467056676 338.98549916494636 161.01450083505364 338.96784538779644 161.03215461220356 338.9496080735437 161.05039192645634 338.9305505807322 161.06944941926784 338.91039631948684 161.08960368051316 338.8889348077806 161.1110651922194 338.8661525984439 161.13384740155612 338.84213818922734 161.15786181077263 338.816926928571 161.18307307142902 338.7906187607733 161.2093812392267 338.76326284618835 161.23673715381165 338.7351074766976 161.26489252330245 338.70642332423586 161.29357667576414 338.6774474911222 161.32255250887775 338.64847314188864 161.35152685811138 338.61971269099087 161.38028730900908 338.5911562144633 161.40884378553676 338.56278186825847 161.43721813174153 338.5345350591112 161.46546494088875 338.50633946933533 161.49366053066467 338.47823073857825 161.5217692614217 338.44996422028424 161.5500357797158 338.42138764266895 161.57861235733105 338.3923766545885 161.6076233454115 338.36269251071064 161.63730748928936 338.3322825645314 161.66771743546857 338.3013180137922 161.69868198620776 338.2701095098243 161.72989049017568 338.23885109387123 161.76114890612877 338.20790677603287 161.79209322396713 338.1774898040021 161.82251019599792 338.14752230438864 161.8524776956114 338.1181359390034 161.8818640609966 338.08919968774956 161.91080031225044 338.06076492820796 161.93923507179207 338.0327186048524 161.96728139514755 338.00488897406126 161.99511102593868 337.97717246212073 162.02282753787927 337.94930965124354 162.05069034875646 337.9211687304303 162.07883126956972 337.8925682202841 162.10743177971594 337.8634887211308 162.1365112788692 337.83391908537646 162.16608091462354 337.80383386941406 162.19616613058588 337.77333842693787 162.22666157306207 337.74233624958214 162.2576637504178 337.7109144790952 162.28908552090473 337.6791072813379 162.32089271866204 337.64689873749654 162.3531012625035 337.61438157297914 162.3856184270209 337.58160665105663 162.41839334894337 337.5485089754092 162.45149102459078 337.51514807132315 162.48485192867685 337.48161317342215 162.5183868265779 337.44781113551767 162.55218886448233 337.4138512880123 162.5861487119877 337.3797082026019 162.62029179739818 337.34539483440943 162.65460516559062 337.3109376566812 162.68906234331885 337.2763942413476 162.72360575865235 337.24165075731884 162.75834924268116 337.2064890287081 162.79351097129182 337.17059336880493 162.82940663119507 337.133577926913 162.86642207308694 337.09518468889445 162.90481531110555 337.0551327062601 162.9448672937399 337.01363164463004 162.98636835537 336.97102159931404 163.02897840068596 336.9276437058414 163.07235629415862 336.8839046406142 163.11609535938578 336.84002296922586 163.1599770307742 336.7961035206408 163.20389647935917 336.7521594754082 163.24784052459188 336.70814119639545 163.29185880360455 336.66407274225054 163.33592725774943 336.6199862936828 163.38001370631716 336.5757635539545 163.42423644604543 336.5314734497714 163.46852655022855 336.487039271983 163.512960728017 336.4424021144447 163.5575978855553 336.3976569010267 163.60234309897328 336.35281213751625 163.64718786248375 336.3080240483184 163.69197595168163 336.26345593643697 163.73654406356303 336.2192226786461 163.7807773213539 336.1755040831758 163.82449591682422 336.13237491724203 163.86762508275797 336.0899874210959 163.91001257890412 336.0483745336079 163.9516254663921 336.00771817662877 163.9922818233713 335.96815352346925 164.03184647653075 335.9296653402844 164.07033465971566 335.89237166203316 164.10762833796684 335.85624198208365 164.14375801791635 335.8214229107624 164.17857708923765 335.78789204180134 164.21210795819866 335.75571634167756 164.24428365832244 335.7249806062264 164.27501939377362 335.69572875806364 164.3042712419363 335.6679759029212 164.33202409707883 " fill="transparent" stroke="black" stroke-width="0.5" /><circle cx="119.91877041246312" cy="79.42281272711662" r="0.8" fill="blue" /><circle cx="119.87710851042446" cy="79.32330368116406" r="0.8" fill="blue" /><circle cx="119.86085684288621" cy="79.38634532124198" r="0.8" fill="blue" /><circle cx="119.78746832164691" cy="79.31967202949058" r="0.8" fill="blue" /><circle cx="119.73069258359477" cy="79.37689499316716" r="0.8" fill="blue" /><circle cx="119.6210334683731" cy="79.30985523397659" r="0.8" fill="blue" /><circle cx="119.46601439909735" cy="79.13862055948037" r="0.8" fill="blue" /><circle cx="119.32520566373766" cy="79.068767753369" r="0.8" fill="blue" /><circle cx="119.19309267702359" cy="79.07796159058245" r="0.8" fill="blue" /><circle cx="119.0206220084243" cy="78.9849998853623" r="0.8" fill="blue" /><circle cx="118.81459012190298" cy="78.8079462976862" r="0.8" fill="blue" /><circle cx="118.62114275450195" cy="78.70732365425899" r="0.8" fill="blue" /><circle cx="118.44262574020864" cy="78.67661978306808" r="0.8" fill="blue" /><circle cx="118.24900984147959" cy="78.58651165075308" r="0.8" fill="blue" /><circle cx="118.05166368347592" cy="78.4585147188218" r="0.8" fill="blue" /><circle cx="117.86094592898411" cy="78.31208906725925" r="0.8" fill="blue" /><circle cx="117.71104825979698" cy="78.27004681790378" r="0.8" fill="blue" /><circle cx="117.53764584275291" cy="78.11925633043525" r="0.8" fill="blue" /><circle cx="117.38391944276559" cy="78.07281204043113" r="0.8" fill="blue" /><circle cx="117.18827739299708" cy="77.93525655502735" r="0.8" fill="blue" /><circle cx="116.96555611858857" cy="77.81010460419023" r="0.8" fill="blue" /><circle cx="116.70838783730696" cy="77.6992806506546" r="0.8" fill="blue" /><circle cx="116.40614295804191" cy="77.52490259218335" r="0.8" fill="blue" /><circle cx="116.09316425928807" cy="77.37843593655909" r="0.8" fill="blue" /><circle cx="115.76415120661119" cy="77.1865113517147" r="0.8" fill="blue" /><circle cx="115.45071382512312" cy="77.03274881888727" r="0.8" fill="blue" /><circle cx="115.1458079062963" cy="76.84796288696499" r="0.8" fill="blue" /><circle cx="114.84884686654779" cy="76.64281078874835" r="0.8" fill="blue" /><circle cx="114.56986733075509" cy="76.49534908908915" r="0.8" fill="blue" /><circle cx="114.28841332241541" cy="76.34353156078765" r="0.8" fill="blue" /><circle cx="113.99916197869504" cy="76.19605690190608" r="0.8" fill="blue" /><circle cx="113.69749364251959" cy="76.05745845152144" r="0.8" fill="blue" /><circle cx="113.37342068751622" cy="75.8556342763855" r="0.8" fill="blue" /><circle cx="113.05472171633279" cy="75.70424919280087" r="0.8" fill="blue" /><circle cx="112.73378820019272" cy="75.52647405769146" r="0.8" fill="blue" /><circle cx="112.41639600168637" cy="75.309359109738" r="0.8" fill="blue" /><circle cx="112.12660525308651" cy="75.16326048009356" r="0.8" fill="blue" /><circle cx="111.85200886211011" cy="75.0333050873841" r="0.8" fill="blue" /><circle cx="111.57963640132547" cy="74.87192484621525" r="0.8" fill="blue" /><circle cx="111.31385620187503" cy="74.74880492300038" r="0.8" fill="blue" /><circle cx="111.03282091557148" cy="74.56106289589334" r="0.8" fill="blue" /><circle cx="114.61996843310568" cy="90.63051575165932" r="0.8" fill="blue" /><circle cx="115.85805762801748" cy="95.09229144204247" r="0.8" fill="blue" /><circle cx="116.74043376947218" cy="98.26850222589921" r="0.8" fill="blue" /><circle cx="117.45554731293957" cy="100.8478645871779" r="0.8" fill="blue" /><circle cx="118.07046465860502" cy="103.04727133344191" r="0.8" fill="blue" /><circle cx="118.57627477203683" cy="104.87043804654382" r="0.8" fill="blue" /><circle cx="119.01842017449745" cy="106.45362116512993" r="0.8" fill="blue" /><circle cx="119.40068692926994" cy="107.83640841555396" r="0.8" fill="blue" /><circle cx="119.75161129425166" cy="109.10631475452672" r="0.8" fill="blue" /><circle cx="120.1010322618404" cy="110.34772348984815" r="0.8" fill="blue" /><circle cx="120.42895795422596" cy="111.5389874791153" r="0.8" fill="blue" /><circle cx="120.7532417544284" cy="112.71768806710827" r="0.8" fill="blue" /><circle cx="121.0895183165721" cy="113.90945651916684" r="0.8" fill="blue" /><circle cx="121.40468917873022" cy="115.04598164975805" r="0.8" fill="blue" /><circle cx="121.71413074001481" cy="116.15087650636754" r="0.8" fill="blue" /><circle cx="121.98764060667308" cy="117.16380957956962" r="0.8" fill="blue" /><circle cx="122.25842785959681" cy="118.14555086942158" r="0.8" fill="blue" /><circle cx="122.53874434144942" cy="119.11899704529561" r="0.8" fill="blue" /><circle cx="122.79001288442527" cy="120.02015987459849" r="0.8" fill="blue" /><circle cx="123.02343431668571" cy="120.8744264059394" r="0.8" fill="blue" /><circle cx="123.24446803454772" cy="121.69960130817478" r="0.8" fill="blue" /><circle cx="123.48920936851086" cy="122.56869821202658" r="0.8" fill="blue" /><circle cx="123.73714020236477" cy="123.46054868799547" r="0.8" fill="blue" /><circle cx="123.99378529450486" cy="124.39618591253874" r="0.8" fill="blue" /><circle cx="124.29151313685968" cy="125.4369026951066" r="0.8" fill="blue" /><circle cx="124.5881139578393" cy="126.52128168598131" r="0.8" fill="blue" /><circle cx="124.91144187034926" cy="127.6836228543302" r="0.8" fill="blue" /><circle cx="125.24092781016023" cy="128.87947698364434" r="0.8" fill="blue" /><circle cx="125.58262704618816" cy="130.10550178938658" r="0.8" fill="blue" /><circle cx="125.91611237821701" cy="131.3197980953782" r="0.8" fill="blue" /><circle cx="126.27549971027784" cy="132.56225872136503" r="0.8" fill="blue" /><circle cx="126.58645313826099" cy="133.73801343476856" r="0.8" fill="blue" /><circle cx="126.9379549860133" cy="134.9813604410101" r="0.8" fill="blue" /><circle cx="127.28241277234109" cy="136.24038383517868" r="0.8" fill="blue" /><circle cx="127.65394213722557" cy="137.5723744015309" r="0.8" fill="blue" /><circle cx="128.05836285559474" cy="138.99363477102344" r="0.8" fill="blue" /><circle cx="128.47063412511042" cy="140.47361705770572" r="0.8" fill="blue" /><circle cx="128.89265535859374" cy="142.01342904305346" r="0.8" fill="blue" /><circle cx="129.35426402900129" cy="143.64447423029472" r="0.8" fill="blue" /><circle cx="129.80226797669877" cy="145.30485859198566" r="0.8" fill="blue" /><circle cx="130.2934835998298" cy="147.05412085249526" r="0.8" fill="blue" /><circle cx="130.79609275123914" cy="148.85853829463673" r="0.8" fill="blue" /><circle cx="131.3045819812009" cy="150.71481573838727" r="0.8" fill="blue" /><circle cx="131.84153880710926" cy="152.64480816259098" r="0.8" fill="blue" /><circle cx="132.40133797883436" cy="154.64215051111324" r="0.8" fill="blue" /><circle cx="132.97831284766687" cy="156.69919415941823" r="0.8" fill="blue" /><circle cx="133.5669062024068" cy="158.80208043646297" r="0.8" fill="blue" /><circle cx="134.13338550222178" cy="160.91688604694997" r="0.8" fill="blue" /><circle cx="134.7293969757638" cy="163.06729983286726" r="0.8" fill="blue" /><circle cx="135.3499136423638" cy="165.23364129846868" r="0.8" fill="blue" /><circle cx="135.93489662355114" cy="167.37287545739662" r="0.8" fill="blue" /><circle cx="136.54433065596106" cy="169.51618456750185" r="0.8" fill="blue" /><circle cx="137.12645029189827" cy="171.6436622417068" r="0.8" fill="blue" /><circle cx="137.71437474487468" cy="173.77351698468593" r="0.8" fill="blue" /><circle cx="138.31281351707412" cy="175.90977023678124" r="0.8" fill="blue" /><circle cx="138.89632780352562" cy="178.04873335507543" r="0.8" fill="blue" /><circle cx="139.48695759904288" cy="180.19003340122353" r="0.8" fill="blue" /><circle cx="140.07667393035337" cy="182.32454407937882" r="0.8" fill="blue" /><circle cx="140.68520136179814" cy="184.44419049348636" r="0.8" fill="blue" /><circle cx="141.2498341211994" cy="186.5445381868211" r="0.8" fill="blue" /><circle cx="141.84741502730355" cy="188.61481103016908" r="0.8" fill="blue" /><circle cx="142.3994287012473" cy="190.6660420447088" r="0.8" fill="blue" /><circle cx="142.96548912483075" cy="192.68864937386545" r="0.8" fill="blue" /><circle cx="143.52394558534345" cy="194.68841307107613" r="0.8" fill="blue" /><circle cx="144.08020740909134" cy="196.66512430945798" r="0.8" fill="blue" /><circle cx="144.61278545097275" cy="198.6342086069421" r="0.8" fill="blue" /><circle cx="145.17451878379956" cy="200.58111995991814" r="0.8" fill="blue" /><circle cx="145.7130935043562" cy="202.54892092436936" r="0.8" fill="blue" /><circle cx="146.2531622899396" cy="204.5362952665738" r="0.8" fill="blue" /><circle cx="146.81766828927047" cy="206.53395561757046" r="0.8" fill="blue" /><circle cx="147.37978290848488" cy="208.56752021047467" r="0.8" fill="blue" /><circle cx="147.94205531598044" cy="210.6339087374905" r="0.8" fill="blue" /><circle cx="148.5320695787164" cy="212.70022949735056" r="0.8" fill="blue" /><circle cx="149.10559173771247" cy="214.81029605443013" r="0.8" fill="blue" /><circle cx="149.6908077462091" cy="216.93146781324572" r="0.8" fill="blue" /><circle cx="150.29077104245346" cy="219.05099765881437" r="0.8" fill="blue" /><circle cx="150.88187429264397" cy="221.17418058374187" r="0.8" fill="blue" /><circle cx="151.4637427355549" cy="223.2764834575794" r="0.8" fill="blue" /><circle cx="152.0367761488531" cy="225.33592538509276" r="0.8" fill="blue" /><circle cx="152.6020972217945" cy="227.33282359031645" r="0.8" fill="blue" /><circle cx="153.13964036973903" cy="229.29705239202417" r="0.8" fill="blue" /><circle cx="153.6701362697836" cy="231.21054259920666" r="0.8" fill="blue" /><circle cx="154.19094227414365" cy="233.0981140138728" r="0.8" fill="blue" /><circle cx="154.71870055661395" cy="234.938401521994" r="0.8" fill="blue" /><circle cx="155.22784626746224" cy="236.79524271416747" r="0.8" fill="blue" /><circle cx="155.73491490260244" cy="238.63611695185548" r="0.8" fill="blue" /><circle cx="156.24523868134597" cy="240.4469416983306" r="0.8" fill="blue" /><circle cx="156.74800781864562" cy="242.25742765705246" r="0.8" fill="blue" /><circle cx="157.23420355163884" cy="244.1023023679346" r="0.8" fill="blue" /><circle cx="157.75232554048182" cy="245.86389127794513" r="0.8" fill="blue" /><circle cx="158.25535783235097" cy="247.68746230942904" r="0.8" fill="blue" /><circle cx="158.7624474971106" cy="249.53362221540152" r="0.8" fill="blue" /><circle cx="159.27137574761545" cy="251.4191398715576" r="0.8" fill="blue" /><circle cx="159.79736090683292" cy="253.30349126737283" r="0.8" fill="blue" /><circle cx="160.33716004594493" cy="255.19982273067495" r="0.8" fill="blue" /><circle cx="160.8706405456768" cy="257.1784665747409" r="0.8" fill="blue" /><circle cx="161.43041707032364" cy="259.1217014229977" r="0.8" fill="blue" /><circle cx="161.98088128044458" cy="261.1484057034174" r="0.8" fill="blue" /><circle cx="162.5535636173504" cy="263.1342339985734" r="0.8" fill="blue" /><circle cx="163.113286109775" cy="265.203446355285" r="0.8" fill="blue" /><circle cx="163.67586401620264" cy="267.2942724531473" r="0.8" fill="blue" /><circle cx="164.26333536637543" cy="269.34376892923694" r="0.8" fill="blue" /><circle cx="164.85259636153975" cy="271.4870178358227" r="0.8" fill="blue" /><circle cx="165.46919374607472" cy="273.65971536903896" r="0.8" fill="blue" /><circle cx="166.1084023493258" cy="275.9303106152732" r="0.8" fill="blue" /><circle cx="166.76499364737177" cy="278.36715500781855" r="0.8" fill="blue" /><circle cx="167.45587213614496" cy="280.8926766762574" r="0.8" fill="blue" /><circle cx="168.17982746120512" cy="283.4959307290703" r="0.8" fill="blue" /><circle cx="168.93486310714027" cy="286.16539113311285" r="0.8" fill="blue" /><circle cx="169.7032268794792" cy="288.9623530163701" r="0.8" fill="blue" /><circle cx="171.01376805628587" cy="289.16850124830603" r="0.8" fill="blue" /><circle cx="172.58446199135213" cy="287.93971898553605" r="0.8" fill="blue" /><circle cx="174.11857894450264" cy="286.7504813003992" r="0.8" fill="blue" /><circle cx="175.6310173226519" cy="285.5306228057275" r="0.8" fill="blue" /><circle cx="177.11453061069773" cy="284.3481654710258" r="0.8" fill="blue" /><circle cx="178.57377239343995" cy="283.2018385847574" r="0.8" fill="blue" /><circle cx="180.01826629019106" cy="282.03234207320156" r="0.8" fill="blue" /><circle cx="181.44382934604042" cy="280.91001609804454" r="0.8" fill="blue" /><circle cx="182.85780764062335" cy="279.7784320740036" r="0.8" fill="blue" /><circle cx="184.2591237500456" cy="278.7038229484615" r="0.8" fill="blue" /><circle cx="185.65559560370497" cy="277.5700077706407" r="0.8" fill="blue" /><circle cx="187.05342148535294" cy="276.4817774020237" r="0.8" fill="blue" /><circle cx="188.46236708236222" cy="275.31112506475273" r="0.8" fill="blue" /><circle cx="189.89561055482687" cy="274.209657127721" r="0.8" fill="blue" /><circle cx="191.35955318747415" cy="273.05319318905225" r="0.8" fill="blue" /><circle cx="192.85660939553998" cy="271.8362541155297" r="0.8" fill="blue" /><circle cx="194.38024972502572" cy="270.62341488253287" r="0.8" fill="blue" /><circle cx="195.91856848441196" cy="269.4295968803532" r="0.8" fill="blue" /><circle cx="197.4521176279218" cy="268.2216952846551" r="0.8" fill="blue" /><circle cx="198.96791331629547" cy="267.0160318043369" r="0.8" fill="blue" /><circle cx="200.4589570329272" cy="265.8223793571816" r="0.8" fill="blue" /><circle cx="201.9375957477047" cy="264.629105152064" r="0.8" fill="blue" /><circle cx="203.43302389322443" cy="263.4620193906412" r="0.8" fill="blue" /><circle cx="204.94863680152778" cy="262.2625143553479" r="0.8" fill="blue" /><circle cx="206.49757778546046" cy="261.01734058603984" r="0.8" fill="blue" /><circle cx="208.10408208238087" cy="259.75638491957545" r="0.8" fill="blue" /><circle cx="209.74397354087793" cy="258.4484475153321" r="0.8" fill="blue" /><circle cx="211.40395651964002" cy="257.10616469266165" r="0.8" fill="blue" /><circle cx="213.09181610695396" cy="255.77510831655533" r="0.8" fill="blue" /><circle cx="214.7781145407042" cy="254.4299705077132" r="0.8" fill="blue" /><circle cx="216.477147626225" cy="253.1095072944534" r="0.8" fill="blue" /><circle cx="218.14692465809867" cy="251.7472667726353" r="0.8" fill="blue" /><circle cx="219.8622454078401" cy="250.4275857538192" r="0.8" fill="blue" /><circle cx="221.55516595202428" cy="249.05682328035692" r="0.8" fill="blue" /><circle cx="223.27879847985866" cy="247.68709164261585" r="0.8" fill="blue" /><circle cx="225.0386154430864" cy="246.3127543616816" r="0.8" fill="blue" /><circle cx="226.7824707652026" cy="244.8861119286202" r="0.8" fill="blue" /><circle cx="228.60213103215108" cy="243.48100906477973" r="0.8" fill="blue" /><circle cx="230.41336862339682" cy="242.0303833614665" r="0.8" fill="blue" /><circle cx="232.24959957161144" cy="240.5603404370869" r="0.8" fill="blue" /><circle cx="234.1105589395403" cy="239.07520422997334" r="0.8" fill="blue" /><circle cx="235.97846349845838" cy="237.58711422162872" r="0.8" fill="blue" /><circle cx="237.8685333263382" cy="236.12494483047976" r="0.8" fill="blue" /><circle cx="239.6899333038473" cy="234.66852833831814" r="0.8" fill="blue" /><circle cx="241.45939941923785" cy="233.24624978158027" r="0.8" fill="blue" /><circle cx="243.20457175676958" cy="231.87680236535422" r="0.8" fill="blue" /><circle cx="244.898326847462" cy="230.5373404546816" r="0.8" fill="blue" /><circle cx="246.5548844855814" cy="229.2166264872188" r="0.8" fill="blue" /><circle cx="248.18721019636484" cy="227.90446581773037" r="0.8" fill="blue" /><circle cx="249.84995248673138" cy="226.59942488507866" r="0.8" fill="blue" /><circle cx="251.5093859282353" cy="225.28625394729946" r="0.8" fill="blue" /><circle cx="253.16049320940274" cy="223.97003596435806" r="0.8" fill="blue" /><circle cx="254.7957495052425" cy="222.65795303633155" r="0.8" fill="blue" /><circle cx="256.4550331644605" cy="221.3599926541445" r="0.8" fill="blue" /><circle cx="258.0398575857548" cy="220.0740335922042" r="0.8" fill="blue" /><circle cx="259.6407051822321" cy="218.80988372959894" r="0.8" fill="blue" /><circle cx="261.214121223594" cy="217.5619962857714" r="0.8" fill="blue" /><circle cx="262.76431427526256" cy="216.32746040483534" r="0.8" fill="blue" /><circle cx="264.29523822182716" cy="215.10355310115895" r="0.8" fill="blue" /><circle cx="265.8623972073461" cy="213.88552340911514" r="0.8" fill="blue" /><circle cx="267.36351575605585" cy="212.67698708476223" r="0.8" fill="blue" /><circle cx="268.89540655272526" cy="211.47891889938393" r="0.8" fill="blue" /><circle cx="270.34229875776725" cy="210.30648218295352" r="0.8" fill="blue" /><circle cx="271.8041572772384" cy="209.1570178280468" r="0.8" fill="blue" /><circle cx="273.21984225691835" cy="208.04084423258288" r="0.8" fill="blue" /><circle cx="274.5845983420941" cy="206.96191356029993" r="0.8" fill="blue" /><circle cx="275.9003980686854" cy="205.91922135913" r="0.8" fill="blue" /><circle cx="277.1706467999985" cy="204.91069939723698" r="0.8" fill="blue" /><circle cx="278.39872138496594" cy="203.9342605521615" r="0.8" fill="blue" /><circle cx="279.58780629402975" cy="202.9879453592197" r="0.8" fill="blue" /><circle cx="280.7403961529427" cy="202.07022740815816" r="0.8" fill="blue" /><circle cx="281.8576912539937" cy="201.18012534217513" r="0.8" fill="blue" /><circle cx="282.94035868969195" cy="200.31698813031406" r="0.8" fill="blue" /><circle cx="283.98895034604453" cy="199.48027205643183" r="0.8" fill="blue" /><circle cx="285.00431056397235" cy="198.66917957382677" r="0.8" fill="blue" /><circle cx="285.43745662675474" cy="198.34570285373192" r="0.8" fill="blue" /><circle cx="286.3767012161067" cy="197.58025809199899" r="0.8" fill="blue" /><circle cx="287.3607492207767" cy="196.81708237276246" r="0.8" fill="blue" /><circle cx="288.26265368170857" cy="196.08403736164692" r="0.8" fill="blue" /><circle cx="289.152518146694" cy="195.3629250980523" r="0.8" fill="blue" /><circle cx="290.10055695323825" cy="194.63529120779052" r="0.8" fill="blue" /><circle cx="290.9588272702465" cy="193.9440108017811" r="0.8" fill="blue" /><circle cx="291.7826900775914" cy="193.28083367659931" r="0.8" fill="blue" /><circle cx="292.63237715266246" cy="192.63382320266632" r="0.8" fill="blue" /><circle cx="293.3548144289785" cy="192.0491617899365" r="0.8" fill="blue" /><circle cx="294.0149210028271" cy="191.5113650515725" r="0.8" fill="blue" /><circle cx="294.696575343629" cy="190.99202243519707" r="0.8" fill="blue" /><circle cx="295.26332339446844" cy="190.52539256504693" r="0.8" fill="blue" /><circle cx="295.80012032313766" cy="190.08242382955424" r="0.8" fill="blue" /><circle cx="296.3956022837989" cy="189.63230333642792" r="0.8" fill="blue" /><circle cx="296.903113557768" cy="189.21577441171672" r="0.8" fill="blue" /><circle cx="297.40197483732754" cy="188.80862053663253" r="0.8" fill="blue" /><circle cx="297.9749464003105" cy="188.38511141415245" r="0.8" fill="blue" /><circle cx="298.460588126567" cy="187.99523803527293" r="0.8" fill="blue" /><circle cx="298.94045507243686" cy="187.61384932168244" r="0.8" fill="blue" /><circle cx="299.41645625410956" cy="187.2397680142305" r="0.8" fill="blue" /><circle cx="299.8935330706911" cy="186.86907676541392" r="0.8" fill="blue" /><circle cx="300.2884456755703" cy="186.52633195567975" r="0.8" fill="blue" /><circle cx="300.78210233924494" cy="186.15045739114012" r="0.8" fill="blue" /><circle cx="301.20014028633113" cy="185.7965182003278" r="0.8" fill="blue" /><circle cx="301.7248727427184" cy="185.40417456627546" r="0.8" fill="blue" /><circle cx="302.15750065013856" cy="185.04606645663077" r="0.8" fill="blue" /><circle cx="302.57351636339655" cy="184.7044302510128" r="0.8" fill="blue" /><circle cx="303.0563852235962" cy="184.35694369912704" r="0.8" fill="blue" /><circle cx="303.39805933389465" cy="184.08032545812347" r="0.8" fill="blue" /><circle cx="303.6870243698826" cy="183.847546416312" r="0.8" fill="blue" /><circle cx="303.93359398327385" cy="183.65003315792984" r="0.8" fill="blue" /><circle cx="304.151859883626" cy="183.47634635240914" r="0.8" fill="blue" /><circle cx="304.3550850260171" cy="183.31583120868754" r="0.8" fill="blue" /><circle cx="304.5558606351925" cy="183.15848708702438" r="0.8" fill="blue" /><circle cx="304.7644792886655" cy="182.99635204805293" r="0.8" fill="blue" /><circle cx="304.9831958603802" cy="182.8286042386524" r="0.8" fill="blue" /><circle cx="305.09555407671166" cy="182.69729099809834" r="0.8" fill="blue" /><circle cx="305.33422222253444" cy="182.52075635579803" r="0.8" fill="blue" /><circle cx="305.58529514966926" cy="182.33999575266085" r="0.8" fill="blue" /><circle cx="305.7243280112293" cy="182.20023502229304" r="0.8" fill="blue" /><circle cx="305.99940088418293" cy="182.01311009414374" r="0.8" fill="blue" /><circle cx="305.8951274223846" cy="181.96401513453435" r="0.8" fill="blue" /><circle cx="305.7869987916712" cy="181.9181806811889" r="0.8" fill="blue" /><circle cx="305.6746200511732" cy="181.87606644762073" r="0.8" fill="blue" /><circle cx="305.69760251002816" cy="181.7888409265262" r="0.8" fill="blue" /><circle cx="305.5780464163852" cy="181.75560350848602" r="0.8" fill="blue" /><circle cx="305.45206149339924" cy="181.72889907170887" r="0.8" fill="blue" /><circle cx="305.4687283511636" cy="181.65773130509362" r="0.8" fill="blue" /><circle cx="305.33085051636374" cy="181.64655371558058" r="0.8" fill="blue" /><circle cx="305.34223317773314" cy="181.59010627466776" r="0.8" fill="blue" /><circle cx="305.19381223348876" cy="181.59468292872916" r="0.8" fill="blue" /><circle cx="305.20654779647435" cy="181.5482382991672" r="0.8" fill="blue" /><circle cx="305.2256910225999" cy="181.5032122878146" r="0.8" fill="blue" /><circle cx="305.0802815796889" cy="181.5172624900094" r="0.8" fill="blue" /><circle cx="305.11516614458486" cy="181.47116989722883" r="0.8" fill="blue" /><circle cx="304.9796979552475" cy="181.48500325975715" r="0.8" fill="blue" /><circle cx="305.0349627994126" cy="181.43543543494286" r="0.8" fill="blue" /><circle cx="304.91183993674133" cy="181.4485324320071" r="0.8" fill="blue" /><circle cx="304.9905490147004" cy="181.39487678675775" r="0.8" fill="blue" /><circle cx="304.8826081845893" cy="181.4066761525465" r="0.8" fill="blue" /><circle cx="304.78174588491584" cy="181.41780194915273" r="0.8" fill="blue" /><circle cx="304.9034708789586" cy="181.35527927370913" r="0.8" fill="blue" /><circle cx="304.82813831863996" cy="181.36095938010595" r="0.8" fill="blue" /><circle cx="304.76570597869187" cy="181.3635795356874" r="0.8" fill="blue" /><circle cx="304.7177859642205" cy="181.36245052449607" r="0.8" fill="blue" /><circle cx="304.6839731493549" cy="181.35780470539862" r="0.8" fill="blue" /><circle cx="304.66357361980295" cy="181.34992202433645" r="0.8" fill="blue" /><circle cx="304.6559445076234" cy="181.33909315063443" r="0.8" fill="blue" /><circle cx="304.66060189553093" cy="181.32552377247072" r="0.8" fill="blue" /><circle cx="304.67868132423365" cy="181.30886512962493" r="0.8" fill="blue" /><circle cx="304.71781732132354" cy="181.28626442850927" r="0.8" fill="blue" /><circle cx="304.7871855760163" cy="181.2543967678432" r="0.8" fill="blue" /><circle cx="304.6017952837859" cy="181.30875159446907" r="0.8" fill="blue" /><circle cx="304.7505478731845" cy="181.251259748655" r="0.8" fill="blue" /><circle cx="304.64285672716244" cy="181.28002280406156" r="0.8" fill="blue" /><circle cx="304.57210369227676" cy="181.29666111832336" r="0.8" fill="blue" /><circle cx="304.53513659496696" cy="181.30267915407805" r="0.8" fill="blue" /><circle cx="304.52906212919265" cy="181.29932220239812" r="0.8" fill="blue" /><circle cx="304.5508399827511" cy="181.2879780040745" r="0.8" fill="blue" /><circle cx="304.59880432595065" cy="181.269313295735" r="0.8" fill="blue" /><circle cx="304.6754567054271" cy="181.2422248261383" r="0.8" fill="blue" /><circle cx="304.7845185994264" cy="181.20503915146585" r="0.8" fill="blue" /><circle cx="304.53380350465653" cy="181.2889109574619" r="0.8" fill="blue" /><circle cx="304.7069604991714" cy="181.23092749410588" r="0.8" fill="blue" /><circle cx="304.50283240372335" cy="181.29900831124948" r="0.8" fill="blue" /><circle cx="304.7498453481938" cy="181.21598492994278" r="0.8" fill="blue" /><circle cx="304.59381185783906" cy="181.26804347411405" r="0.8" fill="blue" /><circle cx="304.45413690045916" cy="181.31470619675036" r="0.8" fill="blue" /><circle cx="304.8040275838838" cy="181.19809836462352" r="0.8" fill="blue" /><circle cx="304.7092201829097" cy="181.23110542593435" r="0.8" fill="blue" /><circle cx="304.6328216807009" cy="181.25864997593345" r="0.8" fill="blue" /><circle cx="304.57850265409843" cy="181.27964419604695" r="0.8" fill="blue" /><circle cx="304.55007716127125" cy="181.29294569146083" r="0.8" fill="blue" /><circle cx="304.55145972043175" cy="181.29739617410146" r="0.8" fill="blue" /><circle cx="304.5868071358466" cy="181.2916339718725" r="0.8" fill="blue" /><circle cx="304.6606586119094" cy="181.27385289254434" r="0.8" fill="blue" /><circle cx="304.7776978675414" cy="181.24211770715974" r="0.8" fill="blue" /><circle cx="304.9428707273381" cy="181.1942439957305" r="0.8" fill="blue" /><circle cx="304.50943259318876" cy="181.34768771833035" r="0.8" fill="blue" /><circle cx="304.76314100693116" cy="181.27019103873033" r="0.8" fill="blue" /><circle cx="304.38162362243224" cy="181.4053163542568" r="0.8" fill="blue" /><circle cx="304.7283797606376" cy="181.29668249241132" r="0.8" fill="blue" /><circle cx="304.39619536670267" cy="181.4154437715309" r="0.8" fill="blue" /><circle cx="304.83598038183504" cy="181.2759445649334" r="0.8" fill="blue" /><circle cx="304.5507818916533" cy="181.3802685747803" r="0.8" fill="blue" /><circle cx="305.0902592388864" cy="181.20718073702287" r="0.8" fill="blue" /><circle cx="304.86273423543844" cy="181.29357350981084" r="0.8" fill="blue" /><circle cx="304.65765316001375" cy="181.37229047799622" r="0.8" fill="blue" /><circle cx="304.47840201747056" cy="181.44225746446486" r="0.8" fill="blue" /><circle cx="305.2452815163914" cy="181.19294800815734" r="0.8" fill="blue" /><circle cx="305.15254248492755" cy="181.23464360610487" r="0.8" fill="blue" /><circle cx="305.09091992432525" cy="181.26580387035924" r="0.8" fill="blue" /><circle cx="305.06107914553496" cy="181.2861785840238" r="0.8" fill="blue" /><circle cx="305.06372811523477" cy="181.29550356376842" r="0.8" fill="blue" /><circle cx="305.0995423451121" cy="181.29359965506026" r="0.8" fill="blue" /><circle cx="305.1695589753422" cy="181.28010331922093" r="0.8" fill="blue" /><circle cx="305.27464502483514" cy="181.2548780694329" r="0.8" fill="blue" /><circle cx="305.4159895620655" cy="181.21753670015337" r="0.8" fill="blue" /><circle cx="304.3851770201634" cy="181.5791548734117" r="0.8" fill="blue" /><circle cx="304.5641577344062" cy="181.53182702374454" r="0.8" fill="blue" /><circle cx="304.7866439762954" cy="181.47022171922708" r="0.8" fill="blue" /><circle cx="305.05896223265387" cy="181.39183150999384" r="0.8" fill="blue" /><circle cx="305.3874867013368" cy="181.29402278938613" r="0.8" fill="blue" /><circle cx="304.3669729334631" cy="181.6561530546546" r="0.8" fill="blue" /><circle cx="304.77839762840676" cy="181.53369459615462" r="0.8" fill="blue" /><circle cx="305.2570852479136" cy="181.38689313678486" r="0.8" fill="blue" /><circle cx="305.80314812011306" cy="181.21455566173128" r="0.8" fill="blue" /><circle cx="304.8200912194676" cy="181.57011125239842" r="0.8" fill="blue" /><circle cx="305.44684910429015" cy="181.3722491046093" r="0.8" fill="blue" /><circle cx="304.45094639254137" cy="181.72899134698307" r="0.8" fill="blue" /><circle cx="305.15942152915704" cy="181.50491734345508" r="0.8" fill="blue" /><circle cx="305.94634128098653" cy="181.24815665948086" r="0.8" fill="blue" /><circle cx="304.96079020081686" cy="181.60622388721194" r="0.8" fill="blue" /><circle cx="305.857385202279" cy="181.312250753509" r="0.8" fill="blue" /><circle cx="304.87909279154843" cy="181.66721710482625" r="0.8" fill="blue" /><circle cx="305.90097505067854" cy="181.32976739570782" r="0.8" fill="blue" /><circle cx="304.93381047947264" cy="181.68190503328043" r="0.8" fill="blue" /><circle cx="306.0905766557494" cy="181.29638776134988" r="0.8" fill="blue" /><circle cx="305.1357494506224" cy="181.64699402867154" r="0.8" fill="blue" /><circle cx="304.16291269106614" cy="181.99551881636947" r="0.8" fill="blue" /><circle cx="305.49651800617164" cy="181.55790584098634" r="0.8" fill="blue" /><circle cx="304.5362106326909" cy="181.90628658540678" r="0.8" fill="blue" /><circle cx="306.02892255648345" cy="181.4072978982493" r="0.8" fill="blue" /><circle cx="305.0822896483625" cy="181.75604850310347" r="0.8" fill="blue" /><circle cx="304.11495273619255" cy="182.10301140677245" r="0.8" fill="blue" /><circle cx="305.8200007712318" cy="181.5341023598142" r="0.8" fill="blue" /><circle cx="304.87377601488834" cy="181.88035503298093" r="0.8" fill="blue" /><circle cx="306.78306580759227" cy="181.22355449808384" r="0.8" fill="blue" /><circle cx="305.8697629126456" cy="181.5669015725879" r="0.8" fill="blue" /><circle cx="304.94340455408155" cy="181.90643610855463" r="0.8" fill="blue" /><circle cx="304.00231351040185" cy="182.24266922658" r="0.8" fill="blue" /><circle cx="306.2459589107524" cy="181.48152258571866" r="0.8" fill="blue" /><circle cx="305.3357810323501" cy="181.81916167088326" r="0.8" fill="blue" /><circle cx="304.4028471944315" cy="182.15675191305866" r="0.8" fill="blue" /><circle cx="306.94777988113475" cy="181.27640587865994" r="0.8" fill="blue" /><circle cx="306.04398629602827" cy="181.61931426605113" r="0.8" fill="blue" /><circle cx="305.12097014713703" cy="181.96117743715982" r="0.8" fill="blue" /><circle cx="304.1821039961136" cy="182.30056002738868" r="0.8" fill="blue" /><circle cx="307.1585487071255" cy="181.26721379040958" r="0.8" fill="blue" /><circle cx="306.2823060574841" cy="181.6039200233051" r="0.8" fill="blue" /><circle cx="305.39515108380226" cy="181.93711042986453" r="0.8" fill="blue" /><circle cx="304.49498371447726" cy="182.2673858967777" r="0.8" fill="blue" /><circle cx="303.57946549367307" cy="182.59538386785454" r="0.8" fill="blue" /><circle cx="307.14734813239653" cy="181.3619818944841" r="0.8" fill="blue" /><circle cx="306.28818280151756" cy="181.6943067015785" r="0.8" fill="blue" /><circle cx="305.4096580820715" cy="182.02631245929643" r="0.8" fill="blue" /><circle cx="304.512699894628" cy="182.3573211397196" r="0.8" fill="blue" /><circle cx="303.59835127548956" cy="182.68663365588353" r="0.8" fill="blue" /><circle cx="307.84874545499105" cy="181.19429212081647" r="0.8" fill="blue" /><circle cx="307.0115195623997" cy="181.52637661014023" r="0.8" fill="blue" /><circle cx="306.15855224783905" cy="181.8571165755237" r="0.8" fill="blue" /><circle cx="305.2893329382224" cy="182.1864450451072" r="0.8" fill="blue" /><circle cx="304.40334804363056" cy="182.51427389259342" r="0.8" fill="blue" /><circle cx="303.5000839407852" cy="182.84048217177389" r="0.8" fill="blue" /><circle cx="308.70165732427284" cy="180.98267653331754" r="0.8" fill="blue" /><circle cx="307.89276157253136" cy="181.31350317164998" r="0.8" fill="blue" /><circle cx="307.06731708334365" cy="181.64403211732335" r="0.8" fill="blue" /><circle cx="306.2257810682274" cy="181.97405932582473" r="0.8" fill="blue" /><circle cx="305.36883150873706" cy="182.30325582600167" r="0.8" fill="blue" /><circle cx="304.49706124582053" cy="182.63136655991246" r="0.8" fill="blue" /><circle cx="303.6109765790566" cy="182.95790487033187" r="0.8" fill="blue" /><circle cx="302.7110763711278" cy="183.28232404336632" r="0.8" fill="blue" /><circle cx="309.3932667730167" cy="180.8836104474517" r="0.8" fill="blue" /><circle cx="308.62322550084724" cy="181.2120703830964" r="0.8" fill="blue" /><circle cx="307.84023917163637" cy="181.53922607549782" r="0.8" fill="blue" /><circle cx="307.04335491696537" cy="181.8651862410006" r="0.8" fill="blue" /><circle cx="306.2312294708709" cy="182.19022278131408" r="0.8" fill="blue" /><circle cx="305.40236297081344" cy="182.51465694550905" r="0.8" fill="blue" /><circle cx="304.55522602780024" cy="182.83873097206336" r="0.8" fill="blue" /><circle cx="303.68871181651406" cy="183.16248998214184" r="0.8" fill="blue" /><circle cx="302.8036404035099" cy="183.48539513141966" r="0.8" fill="blue" /><circle cx="301.9016422868381" cy="183.8065684047074" r="0.8" fill="blue" /><circle cx="300.9843703695485" cy="184.1252693899421" r="0.8" fill="blue" /><circle cx="300.0536450294427" cy="184.44075564650907" r="0.8" fill="blue" /><circle cx="309.4359906535473" cy="181.1563969772335" r="0.8" fill="blue" /><circle cx="308.6876315822016" cy="181.48032968399744" r="0.8" fill="blue" /><circle cx="307.9280085366419" cy="181.80248942678855" r="0.8" fill="blue" /><circle cx="307.1575324691504" cy="182.12247426681478" r="0.8" fill="blue" /><circle cx="306.376585967367" cy="182.43993314070397" r="0.8" fill="blue" /><circle cx="305.5854331912745" cy="182.7545336070581" r="0.8" fill="blue" /><circle cx="304.78343729112106" cy="183.0663301358769" r="0.8" fill="blue" /><circle cx="303.96975490646633" cy="183.3753835885578" r="0.8" fill="blue" /><circle cx="303.1433685709439" cy="183.681855833667" r="0.8" fill="blue" /><circle cx="302.3033125577974" cy="183.98577318559637" r="0.8" fill="blue" /><circle cx="301.4488097357571" cy="184.28709819236036" r="0.8" fill="blue" /><circle cx="300.5800906245638" cy="184.58554430875444" r="0.8" fill="blue" /><circle cx="299.69784471284174" cy="184.88061630219056" r="0.8" fill="blue" /><circle cx="298.8026917099944" cy="185.17195374379412" r="0.8" fill="blue" /><circle cx="297.8954562784939" cy="185.4590528820822" r="0.8" fill="blue" /><circle cx="296.9768754640449" cy="185.74156555728166" r="0.8" fill="blue" /><circle cx="311.48451660191495" cy="180.63864617241296" r="0.8" fill="blue" /><circle cx="310.83957208415256" cy="180.9334233479879" r="0.8" fill="blue" /><circle cx="310.18519245220494" cy="181.2262811615036" r="0.8" fill="blue" /><circle cx="309.52185726940525" cy="181.51686597058477" r="0.8" fill="blue" /></svg>